# xmcd
#
# Track frame offsets:
# 150
# 12794
# 25926
# 39152
# 52967
# 65996
# 79263
# 93318
# 106934
# 121395
# 135543
# 148946
# 162147
# 174927
# 188546
# 203194
# 218210
# 232673
#
# Disc length: 3288 seconds
#
#
# Revision: 0
# Processed by: cddbd v1.5.1PL0 Copyright (c) Steve Scherf et al.
# Submitted via: FreeRIP 2.90 
#
DISCID=e90cd612
DTITLE=Billy Eckstine - I'm in the Mood For Love
DYEAR=1900
DGENRE=Easy Listening
TTITLE0=A Cottage for Sale
TTITLE1=Prisoner of Love
TTITLE2=I'm In the Mood For Love
TTITLE3=My Foolish Heart
TTITLE4=I Apologise
TTITLE5=I Wanna Be loved
TTITLE6=If
TTITLE7=You Call It Madness
TTITLE8=Blue Moon
TTITLE9=Stormy Monday Blues
TTITLE10=Be My Love
TTITLE11=Body and Soul
TTITLE12=Caravan
TTITLE13=Intrigue
TTITLE14=Everything I Have Is Yours
TTITLE15=Jealousy
TTITLE16=Blowing Away the Blues
TTITLE17=Skylark
EXTD=Made in Australia
EXTT0=
EXTT1=
EXTT2=
EXTT3=
EXTT4=
EXTT5=
EXTT6=
EXTT7=
EXTT8=
EXTT9=
EXTT10=
EXTT11=
EXTT12=
EXTT13=
EXTT14=
EXTT15=
EXTT16=
EXTT17=
PLAYORDER=
